STARTFONT 2.1
COMMENT
COMMENT Converted from OpenType font "monaco.ttf" by "otf2bdf 3.0".
COMMENT
FONT -FreeType-Monaco-Medium-R-Normal--16-120-96-96-P-75-ISO10646-1
SIZE 12 96 96
FONTBOUNDINGBOX 12 22 0 -6
STARTPROPERTIES 19
FOUNDRY "FreeType"
FAMILY_NAME "Monaco"
WEIGHT_NAME "Medium"
SLANT "R"
SETWIDTH_NAME "Normal"
ADD_STYLE_NAME ""
PIXEL_SIZE 16
POINT_SIZE 120
RESOLUTION_X 96
RESOLUTION_Y 96
SPACING "P"
AVERAGE_WIDTH 75
CHARSET_REGISTRY "ISO10646"
CHARSET_ENCODING "1"
FONT_ASCENT 16
FONT_DESCENT 4
COPYRIGHT "© 1990-97 Apple Computer Inc. © 1990-97 Type Solutions Inc. © 1990-97 The Font Bureau Inc."
_OTF_FONTFILE "monaco.ttf"
_OTF_PSNAME "Monaco"
ENDPROPERTIES
CHARS 402
STARTCHAR 0020
ENCODING 32
SWIDTH 562 0
DWIDTH 9 0
BBX 0 0 0 0
BITMAP
ENDCHAR
STARTCHAR 0021
ENCODING 33
SWIDTH 562 0
DWIDTH 9 0
BBX 2 12 4 0
BITMAP
C0
C0
C0
C0
C0
80
80
80
80
00
C0
C0
ENDCHAR
STARTCHAR 0022
ENCODING 34
SWIDTH 562 0
DWIDTH 9 0
BBX 5 5 2 8
BITMAP
C8
C8
C8
C8
48
ENDCHAR
STARTCHAR 0023
ENCODING 35
SWIDTH 562 0
DWIDTH 9 0
BBX 8 12 1 0
BITMAP
13
12
32
FF
24
24
64
4C
FF
48
88
98
ENDCHAR
STARTCHAR 0024
ENCODING 36
SWIDTH 562 0
DWIDTH 9 0
BBX 8 14 1 -1
BITMAP
08
3E
6A
C8
C8
68
38
0C
0E
0B
0B
CE
7C
08
ENDCHAR
STARTCHAR 0025
ENCODING 37
SWIDTH 562 0
DWIDTH 9 0
BBX 10 12 0 0
BITMAP
7080
D900
8B00
8A00
DC00
7C00
0B80
1480
14C0
24C0
6480
4380
ENDCHAR
STARTCHAR 0026
ENCODING 38
SWIDTH 562 0
DWIDTH 9 0
BBX 9 12 0 0
BITMAP
3C00
4400
4400
6C00
3800
3000
7900
CD00
8700
C300
C300
7D80
ENDCHAR
STARTCHAR 0027
ENCODING 39
SWIDTH 562 0
DWIDTH 9 0
BBX 3 5 3 8
BITMAP
E0
60
60
60
40
ENDCHAR
STARTCHAR 0028
ENCODING 40
SWIDTH 562 0
DWIDTH 9 0
BBX 7 16 1 -3
BITMAP
06
0E
18
30
60
40
40
C0
C0
40
40
60
30
30
1C
06
ENDCHAR
STARTCHAR 0029
ENCODING 41
SWIDTH 562 0
DWIDTH 9 0
BBX 7 16 1 -3
BITMAP
C0
70
18
0C
04
06
06
02
02
06
06
04
0C
18
70
C0
ENDCHAR
STARTCHAR 002A
ENCODING 42
SWIDTH 562 0
DWIDTH 9 0
BBX 7 7 1 5
BITMAP
10
56
7C
3C
F6
12
18
ENDCHAR
STARTCHAR 002B
ENCODING 43
SWIDTH 562 0
DWIDTH 9 0
BBX 8 8 1 0
BITMAP
10
10
10
FF
10
10
10
10
ENDCHAR
STARTCHAR 002C
ENCODING 44
SWIDTH 562 0
DWIDTH 9 0
BBX 3 5 3 -3
BITMAP
E0
60
20
20
C0
ENDCHAR
STARTCHAR 002D
ENCODING 45
SWIDTH 562 0
DWIDTH 9 0
BBX 6 2 2 4
BITMAP
FC
FC
ENDCHAR
STARTCHAR 002E
ENCODING 46
SWIDTH 562 0
DWIDTH 9 0
BBX 2 2 4 0
BITMAP
C0
C0
ENDCHAR
STARTCHAR 002F
ENCODING 47
SWIDTH 562 0
DWIDTH 9 0
BBX 8 12 1 0
BITMAP
03
02
06
04
08
18
10
30
20
40
C0
80
ENDCHAR
STARTCHAR 0030
ENCODING 48
SWIDTH 562 0
DWIDTH 9 0
BBX 8 12 1 0
BITMAP
7C
46
C7
87
8B
9B
93
B3
E3
C3
46
7C
ENDCHAR
STARTCHAR 0031
ENCODING 49
SWIDTH 562 0
DWIDTH 9 0
BBX 8 12 1 0
BITMAP
18
78
D8
18
18
18
18
18
18
18
18
FF
ENDCHAR
STARTCHAR 0032
ENCODING 50
SWIDTH 562 0
DWIDTH 9 0
BBX 8 12 1 0
BITMAP
FE
86
02
06
04
08
18
20
60
C0
C0
FF
ENDCHAR
STARTCHAR 0033
ENCODING 51
SWIDTH 562 0
DWIDTH 9 0
BBX 8 12 1 0
BITMAP
FC
06
06
06
0C
7C
06
02
03
02
86
FC
ENDCHAR
STARTCHAR 0034
ENCODING 52
SWIDTH 562 0
DWIDTH 9 0
BBX 9 12 0 0
BITMAP
0600
0E00
0A00
1A00
3200
2200
6200
FF80
FF80
0200
0200
0200
ENDCHAR
STARTCHAR 0035
ENCODING 53
SWIDTH 562 0
DWIDTH 9 0
BBX 8 12 1 0
BITMAP
FE
C0
C0
C0
F0
FC
06
03
03
02
86
FC
ENDCHAR
STARTCHAR 0036
ENCODING 54
SWIDTH 562 0
DWIDTH 9 0
BBX 8 12 1 0
BITMAP
3E
60
C0
C0
88
BE
E3
C1
C1
C3
62
3E
ENDCHAR
STARTCHAR 0037
ENCODING 55
SWIDTH 562 0
DWIDTH 9 0
BBX 8 12 1 0
BITMAP
FF
01
02
06
04
08
18
30
20
20
20
60
ENDCHAR
STARTCHAR 0038
ENCODING 56
SWIDTH 562 0
DWIDTH 9 0
BBX 8 12 1 0
BITMAP
3E
46
42
66
3C
18
6C
46
C3
C3
C2
7E
ENDCHAR
STARTCHAR 0039
ENCODING 57
SWIDTH 562 0
DWIDTH 9 0
BBX 8 12 1 0
BITMAP
7C
C6
82
83
83
C7
7B
03
02
02
06
FC
ENDCHAR
STARTCHAR 003A
ENCODING 58
SWIDTH 562 0
DWIDTH 9 0
BBX 2 9 4 0
BITMAP
C0
C0
80
00
00
00
00
C0
C0
ENDCHAR
STARTCHAR 003B
ENCODING 59
SWIDTH 562 0
DWIDTH 9 0
BBX 3 12 3 -3
BITMAP
60
E0
40
00
00
00
00
E0
60
20
20
C0
ENDCHAR
STARTCHAR 003C
ENCODING 60
SWIDTH 562 0
DWIDTH 9 0
BBX 8 8 1 0
BITMAP
03
0E
38
E0
70
1C
07
01
ENDCHAR
STARTCHAR 003D
ENCODING 61
SWIDTH 562 0
DWIDTH 9 0
BBX 8 4 1 2
BITMAP
FF
00
00
FF
ENDCHAR
STARTCHAR 003E
ENCODING 62
SWIDTH 562 0
DWIDTH 9 0
BBX 8 8 1 0
BITMAP
C0
70
1C
07
0E
38
E0
80
ENDCHAR
STARTCHAR 003F
ENCODING 63
SWIDTH 562 0
DWIDTH 9 0
BBX 6 12 2 0
BITMAP
FC
0C
04
0C
18
30
20
60
60
00
60
60
ENDCHAR
STARTCHAR 0040
ENCODING 64
SWIDTH 562 0
DWIDTH 9 0
BBX 10 12 0 0
BITMAP
3F00
4180
4080
9E80
A240
A240
A680
BA80
9300
4000
6000
3E00
ENDCHAR
STARTCHAR 0041
ENCODING 65
SWIDTH 562 0
DWIDTH 9 0
BBX 9 12 0 0
BITMAP
0C00
0C00
1C00
1600
1600
3200
2300
2300
7F00
6180
4180
C080
ENDCHAR
STARTCHAR 0042
ENCODING 66
SWIDTH 562 0
DWIDTH 9 0
BBX 7 12 1 0
BITMAP
FC
C6
C6
C6
C4
F8
FC
C6
C2
C2
C6
FC
ENDCHAR
STARTCHAR 0043
ENCODING 67
SWIDTH 562 0
DWIDTH 9 0
BBX 8 12 1 1
BITMAP
3F
60
40
C0
C0
C0
C0
C0
C0
40
61
3F
ENDCHAR
STARTCHAR 0044
ENCODING 68
SWIDTH 562 0
DWIDTH 9 0
BBX 8 12 1 0
BITMAP
FC
C6
C2
C3
C3
C3
C3
C3
C3
C2
CE
FC
ENDCHAR
STARTCHAR 0045
ENCODING 69
SWIDTH 562 0
DWIDTH 9 0
BBX 6 12 2 0
BITMAP
FC
80
80
80
80
FC
80
80
80
80
80
FC
ENDCHAR
STARTCHAR 0046
ENCODING 70
SWIDTH 562 0
DWIDTH 9 0
BBX 6 12 2 0
BITMAP
FC
80
80
80
80
FC
80
80
80
80
80
80
ENDCHAR
STARTCHAR 0047
ENCODING 71
SWIDTH 562 0
DWIDTH 9 0
BBX 8 12 1 1
BITMAP
3F
60
40
C0
C0
C0
C7
C3
C3
43
63
3F
ENDCHAR
STARTCHAR 0048
ENCODING 72
SWIDTH 562 0
DWIDTH 9 0
BBX 8 12 1 0
BITMAP
C3
C3
C3
C3
C3
FF
C3
C3
C3
C3
C3
C3
ENDCHAR
STARTCHAR 0049
ENCODING 73
SWIDTH 562 0
DWIDTH 9 0
BBX 7 12 1 0
BITMAP
FE
18
18
18
18
18
18
18
18
18
18
FE
ENDCHAR
STARTCHAR 004A
ENCODING 74
SWIDTH 562 0
DWIDTH 9 0
BBX 6 12 1 0
BITMAP
3C
04
04
04
04
04
04
04
04
04
0C
F8
ENDCHAR
STARTCHAR 004B
ENCODING 75
SWIDTH 562 0
DWIDTH 9 0
BBX 8 12 1 0
BITMAP
C3
C6
CC
C8
D0
F0
F0
D8
CC
C6
C6
C3
ENDCHAR
STARTCHAR 004C
ENCODING 76
SWIDTH 562 0
DWIDTH 9 0
BBX 6 12 2 0
BITMAP
80
80
80
80
80
80
80
80
80
80
80
FC
ENDCHAR
STARTCHAR 004D
ENCODING 77
SWIDTH 562 0
DWIDTH 9 0
BBX 9 12 0 0
BITMAP
C180
E180
E180
E380
F280
F280
D680
DC80
CC80
CC80
C080
C080
ENDCHAR
STARTCHAR 004E
ENCODING 78
SWIDTH 562 0
DWIDTH 9 0
BBX 8 12 1 0
BITMAP
C3
C3
E3
A3
B3
93
9B
8B
8F
87
87
83
ENDCHAR
STARTCHAR 004F
ENCODING 79
SWIDTH 562 0
DWIDTH 9 0
BBX 8 12 1 0
BITMAP
7C
46
C3
83
83
83
83
83
83
C3
46
7C
ENDCHAR
STARTCHAR 0050
ENCODING 80
SWIDTH 562 0
DWIDTH 9 0
BBX 8 12 1 0
BITMAP
FC
C6
C3
C3
C3
C6
FC
F0
C0
C0
C0
C0
ENDCHAR
STARTCHAR 0051
ENCODING 81
SWIDTH 562 0
DWIDTH 9 0
BBX 9 15 1 -3
BITMAP
7C00
4600
C300
8300
8300
8300
8300
8300
8300
C300
4600
7C00
0800
0C00
0780
ENDCHAR
STARTCHAR 0052
ENCODING 82
SWIDTH 562 0
DWIDTH 9 0
BBX 8 12 1 0
BITMAP
FC
C6
C2
C2
C6
CC
F8
CC
CC
C6
C2
C3
ENDCHAR
STARTCHAR 0053
ENCODING 83
SWIDTH 562 0
DWIDTH 9 0
BBX 8 12 1 0
BITMAP
7E
40
C0
C0
60
38
0C
06
03
03
86
FC
ENDCHAR
STARTCHAR 0054
ENCODING 84
SWIDTH 562 0
DWIDTH 9 0
BBX 9 12 0 0
BITMAP
FF80
0C00
0C00
0C00
0C00
0C00
0C00
0C00
0C00
0C00
0C00
0C00
ENDCHAR
STARTCHAR 0055
ENCODING 85
SWIDTH 562 0
DWIDTH 9 0
BBX 8 12 1 0
BITMAP
C3
C3
C3
C3
C3
C3
C3
C3
C3
C2
C6
7C
ENDCHAR
STARTCHAR 0056
ENCODING 86
SWIDTH 562 0
DWIDTH 9 0
BBX 9 12 0 0
BITMAP
C080
4180
6180
6100
2300
3300
3200
1600
1E00
1C00
0C00
0C00
ENDCHAR
STARTCHAR 0057
ENCODING 87
SWIDTH 562 0
DWIDTH 9 0
BBX 9 12 0 0
BITMAP
CC80
CC80
4C80
5C80
5480
5780
5780
7300
7300
7300
6300
2300
ENDCHAR
STARTCHAR 0058
ENCODING 88
SWIDTH 562 0
DWIDTH 9 0
BBX 8 12 1 0
BITMAP
C3
46
64
3C
38
18
38
3C
6C
46
C2
83
ENDCHAR
STARTCHAR 0059
ENCODING 89
SWIDTH 562 0
DWIDTH 9 0
BBX 8 12 1 0
BITMAP
C3
C2
66
64
3C
18
18
18
18
18
18
18
ENDCHAR
STARTCHAR 005A
ENCODING 90
SWIDTH 562 0
DWIDTH 9 0
BBX 8 12 1 0
BITMAP
FF
06
06
0C
08
18
30
30
60
40
C0
FF
ENDCHAR
STARTCHAR 005B
ENCODING 91
SWIDTH 562 0
DWIDTH 9 0
BBX 6 16 3 -3
BITMAP
FC
80
80
80
80
80
80
80
80
80
80
80
80
80
80
FC
ENDCHAR
STARTCHAR 005C
ENCODING 92
SWIDTH 562 0
DWIDTH 9 0
BBX 8 12 1 0
BITMAP
80
C0
40
20
30
10
18
08
04
06
02
03
ENDCHAR
STARTCHAR 005D
ENCODING 93
SWIDTH 562 0
DWIDTH 9 0
BBX 6 16 1 -3
BITMAP
FC
0C
0C
0C
0C
0C
0C
0C
0C
0C
0C
0C
0C
0C
0C
FC
ENDCHAR
STARTCHAR 005E
ENCODING 94
SWIDTH 562 0
DWIDTH 9 0
BBX 8 8 1 4
BITMAP
10
18
38
2C
64
46
C2
83
ENDCHAR
STARTCHAR 005F
ENCODING 95
SWIDTH 562 0
DWIDTH 9 0
BBX 8 1 1 -1
BITMAP
FF
ENDCHAR
STARTCHAR 0060
ENCODING 96
SWIDTH 562 0
DWIDTH 9 0
BBX 3 3 3 10
BITMAP
80
40
20
ENDCHAR
STARTCHAR 0061
ENCODING 97
SWIDTH 562 0
DWIDTH 9 0
BBX 8 9 1 0
BITMAP
1E
72
C2
C2
82
82
C6
CE
7B
ENDCHAR
STARTCHAR 0062
ENCODING 98
SWIDTH 562 0
DWIDTH 9 0
BBX 8 13 1 0
BITMAP
C0
C0
C0
C0
DC
F6
E3
C3
C3
C3
C2
CE
F8
ENDCHAR
STARTCHAR 0063
ENCODING 99
SWIDTH 562 0
DWIDTH 9 0
BBX 8 9 1 0
BITMAP
1E
73
40
C0
C0
C0
40
61
3F
ENDCHAR
STARTCHAR 0064
ENCODING 100
SWIDTH 562 0
DWIDTH 9 0
BBX 8 13 1 0
BITMAP
03
03
03
03
1F
73
43
C3
C3
83
C7
CF
7B
ENDCHAR
STARTCHAR 0065
ENCODING 101
SWIDTH 562 0
DWIDTH 9 0
BBX 8 9 1 0
BITMAP
3C
66
C2
C3
FF
C0
C0
60
3E
ENDCHAR
STARTCHAR 0066
ENCODING 102
SWIDTH 562 0
DWIDTH 9 0
BBX 8 13 1 0
BITMAP
0F
19
30
30
30
FE
30
30
30
30
30
30
30
ENDCHAR
STARTCHAR 0067
ENCODING 103
SWIDTH 562 0
DWIDTH 9 0
BBX 8 13 1 -4
BITMAP
1F
73
43
C3
C3
83
C6
CE
7A
02
02
FC
30
ENDCHAR
STARTCHAR 0068
ENCODING 104
SWIDTH 562 0
DWIDTH 9 0
BBX 7 13 1 0
BITMAP
C0
C0
C0
C0
DC
F6
E2
C2
C2
C2
C2
C2
C2
ENDCHAR
STARTCHAR 0069
ENCODING 105
SWIDTH 562 0
DWIDTH 9 0
BBX 7 13 1 0
BITMAP
10
30
00
00
F0
10
10
10
10
10
10
10
1E
ENDCHAR
STARTCHAR 006A
ENCODING 106
SWIDTH 562 0
DWIDTH 9 0
BBX 6 17 1 -4
BITMAP
04
04
00
00
7C
04
04
04
04
04
04
04
04
04
0C
F8
70
ENDCHAR
STARTCHAR 006B
ENCODING 107
SWIDTH 562 0
DWIDTH 9 0
BBX 7 13 2 0
BITMAP
80
80
80
80
86
8C
98
B0
E0
B0
98
8C
86
ENDCHAR
STARTCHAR 006C
ENCODING 108
SWIDTH 562 0
DWIDTH 9 0
BBX 7 13 1 0
BITMAP
F0
F0
10
10
10
10
10
10
10
10
10
10
1E
ENDCHAR
STARTCHAR 006D
ENCODING 109
SWIDTH 562 0
DWIDTH 9 0
BBX 8 9 1 0
BITMAP
B3
D7
D9
99
91
91
91
91
91
ENDCHAR
STARTCHAR 006E
ENCODING 110
SWIDTH 562 0
DWIDTH 9 0
BBX 7 9 1 0
BITMAP
DC
F6
E2
C2
C2
C2
C2
C2
C2
ENDCHAR
STARTCHAR 006F
ENCODING 111
SWIDTH 562 0
DWIDTH 9 0
BBX 8 9 1 0
BITMAP
3C
66
C3
83
83
83
C3
C6
7C
ENDCHAR
STARTCHAR 0070
ENCODING 112
SWIDTH 562 0
DWIDTH 9 0
BBX 8 12 1 -3
BITMAP
DC
F6
E3
C3
C3
C3
C2
CE
F8
C0
C0
C0
ENDCHAR
STARTCHAR 0071
ENCODING 113
SWIDTH 562 0
DWIDTH 9 0
BBX 8 12 1 -3
BITMAP
1F
73
43
C3
C3
83
C7
CF
7B
03
03
03
ENDCHAR
STARTCHAR 0072
ENCODING 114
SWIDTH 562 0
DWIDTH 9 0
BBX 7 9 2 0
BITMAP
9E
B6
C6
C0
80
80
80
80
80
ENDCHAR
STARTCHAR 0073
ENCODING 115
SWIDTH 562 0
DWIDTH 9 0
BBX 7 9 1 0
BITMAP
3E
62
40
60
3C
0E
02
82
FE
ENDCHAR
STARTCHAR 0074
ENCODING 116
SWIDTH 562 0
DWIDTH 9 0
BBX 8 12 1 0
BITMAP
20
20
20
20
FE
20
20
20
20
20
31
1F
ENDCHAR
STARTCHAR 0075
ENCODING 117
SWIDTH 562 0
DWIDTH 9 0
BBX 7 9 1 0
BITMAP
C2
C2
C2
C2
C2
C2
C6
CE
7A
ENDCHAR
STARTCHAR 0076
ENCODING 118
SWIDTH 562 0
DWIDTH 9 0
BBX 9 9 0 0
BITMAP
C080
4180
6100
2300
3300
1200
1E00
1C00
0C00
ENDCHAR
STARTCHAR 0077
ENCODING 119
SWIDTH 562 0
DWIDTH 9 0
BBX 9 9 0 0
BITMAP
CC80
CC80
4C80
5480
5680
5380
7300
6300
6100
ENDCHAR
STARTCHAR 0078
ENCODING 120
SWIDTH 562 0
DWIDTH 9 0
BBX 8 9 1 0
BITMAP
C2
46
6C
38
18
3C
6C
46
83
ENDCHAR
STARTCHAR 0079
ENCODING 121
SWIDTH 562 0
DWIDTH 9 0
BBX 9 13 0 -4
BITMAP
4080
6180
6100
3100
3300
1A00
1E00
0C00
0C00
0800
1800
F000
E000
ENDCHAR
STARTCHAR 007A
ENCODING 122
SWIDTH 562 0
DWIDTH 9 0
BBX 8 9 1 0
BITMAP
FE
06
04
0C
18
30
60
C0
FF
ENDCHAR
STARTCHAR 007B
ENCODING 123
SWIDTH 562 0
DWIDTH 9 0
BBX 7 16 2 -3
BITMAP
1E
30
30
30
30
10
30
E0
E0
30
10
30
30
30
30
1E
ENDCHAR
STARTCHAR 007C
ENCODING 124
SWIDTH 562 0
DWIDTH 9 0
BBX 1 12 4 0
BITMAP
80
80
80
80
80
80
80
80
80
80
80
80
ENDCHAR
STARTCHAR 007D
ENCODING 125
SWIDTH 562 0
DWIDTH 9 0
BBX 7 16 1 -3
BITMAP
F0
30
18
10
10
10
10
0E
0E
10
10
10
10
18
10
F0
ENDCHAR
STARTCHAR 007E
ENCODING 126
SWIDTH 562 0
DWIDTH 9 0
BBX 9 3 0 3
BITMAP
3080
5C80
8700
ENDCHAR
STARTCHAR 00A0
ENCODING 160
SWIDTH 562 0
DWIDTH 9 0
BBX 0 0 0 0
BITMAP
ENDCHAR
STARTCHAR 00A1
ENCODING 161
SWIDTH 562 0
DWIDTH 9 0
BBX 2 13 4 -4
BITMAP
C0
C0
00
00
80
C0
C0
C0
C0
C0
C0
C0
C0
ENDCHAR
STARTCHAR 00A2
ENCODING 162
SWIDTH 562 0
DWIDTH 9 0
BBX 7 14 1 -1
BITMAP
08
08
1C
7E
48
C8
C8
C8
C8
48
7E
08
08
08
ENDCHAR
STARTCHAR 00A3
ENCODING 163
SWIDTH 562 0
DWIDTH 9 0
BBX 8 12 1 0
BITMAP
1E
30
20
20
20
FC
20
20
20
20
40
FF
ENDCHAR
STARTCHAR 00A4
ENCODING 164
SWIDTH 562 0
DWIDTH 9 0
BBX 8 10 1 1
BITMAP
80
DB
7E
C2
82
82
42
7E
9B
80
ENDCHAR
STARTCHAR 00A5
ENCODING 165
SWIDTH 562 0
DWIDTH 9 0
BBX 8 12 1 0
BITMAP
83
C2
66
64
3C
18
7E
18
18
7E
18
18
ENDCHAR
STARTCHAR 00A6
ENCODING 166
SWIDTH 562 0
DWIDTH 9 0
BBX 1 12 4 0
BITMAP
80
80
80
80
80
00
00
80
80
80
80
80
ENDCHAR
STARTCHAR 00A7
ENCODING 167
SWIDTH 562 0
DWIDTH 9 0
BBX 8 15 1 -3
BITMAP
7E
40
C0
60
78
4C
C6
43
73
1E
0E
02
02
C6
7C
ENDCHAR
STARTCHAR 00A8
ENCODING 168
SWIDTH 562 0
DWIDTH 9 0
BBX 5 2 2 10
BITMAP
C8
C8
ENDCHAR
STARTCHAR 00A9
ENCODING 169
SWIDTH 562 0
DWIDTH 9 0
BBX 10 12 0 0
BITMAP
3F00
4100
5E80
B080
A080
A040
A040
A080
9080
5E80
6100
3E00
ENDCHAR
STARTCHAR 00AA
ENCODING 170
SWIDTH 562 0
DWIDTH 9 0
BBX 6 5 2 7
BITMAP
7C
84
84
8C
F4
ENDCHAR
STARTCHAR 00AB
ENCODING 171
SWIDTH 562 0
DWIDTH 9 0
BBX 8 7 1 0
BITMAP
13
26
6C
C8
CC
66
33
ENDCHAR
STARTCHAR 00AC
ENCODING 172
SWIDTH 562 0
DWIDTH 9 0
BBX 8 4 1 1
BITMAP
FF
01
01
01
ENDCHAR
STARTCHAR 00AD
ENCODING 173
SWIDTH 562 0
DWIDTH 9 0
BBX 6 2 2 4
BITMAP
FC
FC
ENDCHAR
STARTCHAR 00AE
ENCODING 174
SWIDTH 562 0
DWIDTH 9 0
BBX 10 12 0 0
BITMAP
3F00
4100
5C80
9280
9280
9440
9C40
9480
9280
4080
6100
3E00
ENDCHAR
STARTCHAR 00AF
ENCODING 175
SWIDTH 562 0
DWIDTH 9 0
BBX 4 1 3 10
BITMAP
F0
ENDCHAR
STARTCHAR 00B0
ENCODING 176
SWIDTH 562 0
DWIDTH 9 0
BBX 4 4 3 8
BITMAP
F0
90
90
60
ENDCHAR
STARTCHAR 00B1
ENCODING 177
SWIDTH 562 0
DWIDTH 9 0
BBX 8 11 1 0
BITMAP
10
10
10
10
FF
10
10
10
10
00
FF
ENDCHAR
STARTCHAR 00B2
ENCODING 178
SWIDTH 562 0
DWIDTH 9 0
BBX 6 7 2 5
BITMAP
F8
0C
18
30
40
80
FC
ENDCHAR
STARTCHAR 00B3
ENCODING 179
SWIDTH 750 0
DWIDTH 12 0
BBX 6 7 3 5
BITMAP
F8
0C
18
7C
04
04
F8
ENDCHAR
STARTCHAR 00B4
ENCODING 180
SWIDTH 562 0
DWIDTH 9 0
BBX 3 3 3 10
BITMAP
20
40
80
ENDCHAR
STARTCHAR 00B5
ENCODING 181
SWIDTH 562 0
DWIDTH 9 0
BBX 7 12 1 -3
BITMAP
82
82
82
82
82
82
C6
CE
FA
80
80
80
ENDCHAR
STARTCHAR 00B6
ENCODING 182
SWIDTH 562 0
DWIDTH 9 0
BBX 8 15 1 -3
BITMAP
7F
FA
FA
FA
FA
7A
3A
1A
1A
1A
1A
1A
1A
1A
1A
ENDCHAR
STARTCHAR 00B7
ENCODING 183
SWIDTH 562 0
DWIDTH 9 0
BBX 2 2 4 4
BITMAP
C0
C0
ENDCHAR
STARTCHAR 00B8
ENCODING 184
SWIDTH 562 0
DWIDTH 9 0
BBX 2 3 4 -3
BITMAP
80
C0
C0
ENDCHAR
STARTCHAR 00B9
ENCODING 185
SWIDTH 562 0
DWIDTH 9 0
BBX 6 7 2 5
BITMAP
70
90
10
10
10
10
FC
ENDCHAR
STARTCHAR 00BA
ENCODING 186
SWIDTH 562 0
DWIDTH 9 0
BBX 7 5 1 7
BITMAP
7E
42
C2
42
3C
ENDCHAR
STARTCHAR 00BB
ENCODING 187
SWIDTH 562 0
DWIDTH 9 0
BBX 7 7 1 0
BITMAP
88
4C
66
32
26
6C
C8
ENDCHAR
STARTCHAR 00BC
ENCODING 188
SWIDTH 562 0
DWIDTH 9 0
BBX 10 12 0 0
BITMAP
6080
A100
2300
2200
2400
FC00
0900
1300
1500
2D00
6FC0
4100
ENDCHAR
STARTCHAR 00BD
ENCODING 189
SWIDTH 562 0
DWIDTH 9 0
BBX 9 12 0 0
BITMAP
6080
A100
2300
2200
2400
FC00
0F80
1080
1080
2300
4400
4780
ENDCHAR
STARTCHAR 00BE
ENCODING 190
SWIDTH 562 0
DWIDTH 9 0
BBX 9 12 1 0
BITMAP
E100
2200
E600
2400
3800
F800
1200
2600
2A00
5A00
DF80
8200
ENDCHAR
STARTCHAR 00BF
ENCODING 191
SWIDTH 562 0
DWIDTH 9 0
BBX 7 13 1 -4
BITMAP
0C
0C
00
00
08
08
18
30
60
40
C0
66
3C
ENDCHAR
STARTCHAR 00C0
ENCODING 192
SWIDTH 562 0
DWIDTH 9 0
BBX 9 16 0 0
BITMAP
1000
0800
0400
0000
0C00
0C00
1C00
1600
1600
3200
2300
2300
7F00
6180
4180
C080
ENDCHAR
STARTCHAR 00C1
ENCODING 193
SWIDTH 562 0
DWIDTH 9 0
BBX 9 16 0 0
BITMAP
0400
0800
1000
0000
0C00
0C00
1C00
1600
1600
3200
2300
2300
7F00
6180
4180
C080
ENDCHAR
STARTCHAR 00C2
ENCODING 194
SWIDTH 562 0
DWIDTH 9 0
BBX 9 16 0 0
BITMAP
0800
0C00
1200
0000
0C00
0C00
1C00
1600
1600
3200
2300
2300
7F00
6180
4180
C080
ENDCHAR
STARTCHAR 00C3
ENCODING 195
SWIDTH 562 0
DWIDTH 9 0
BBX 9 15 0 0
BITMAP
1A00
2600
0000
0C00
0C00
1C00
1600
1600
3200
2300
2300
7F00
6180
4180
C080
ENDCHAR
STARTCHAR 00C4
ENCODING 196
SWIDTH 562 0
DWIDTH 9 0
BBX 9 15 0 0
BITMAP
3200
3200
0000
0C00
0C00
1C00
1600
1600
3200
2300
2300
7F00
6180
4180
C080
ENDCHAR
STARTCHAR 00C5
ENCODING 197
SWIDTH 562 0
DWIDTH 9 0
BBX 9 15 0 0
BITMAP
0C00
1400
0C00
0C00
0C00
1C00
1600
1600
3200
2300
2300
7F00
6180
4180
C080
ENDCHAR
STARTCHAR 00C6
ENCODING 198
SWIDTH 562 0
DWIDTH 9 0
BBX 9 12 0 0
BITMAP
0780
0C00
0C00
0C00
1400
1780
3400
2400
7C00
4400
4400
C780
ENDCHAR
STARTCHAR 00C7
ENCODING 199
SWIDTH 562 0
DWIDTH 9 0
BBX 8 15 1 -2
BITMAP
3F
60
40
C0
C0
C0
C0
C0
C0
40
61
3F
08
1C
0C
ENDCHAR
STARTCHAR 00C8
ENCODING 200
SWIDTH 562 0
DWIDTH 9 0
BBX 6 16 2 0
BITMAP
40
20
10
00
FC
80
80
80
80
FC
80
80
80
80
80
FC
ENDCHAR
STARTCHAR 00C9
ENCODING 201
SWIDTH 562 0
DWIDTH 9 0
BBX 6 16 2 0
BITMAP
10
20
40
00
FC
80
80
80
80
FC
80
80
80
80
80
FC
ENDCHAR
STARTCHAR 00CA
ENCODING 202
SWIDTH 562 0
DWIDTH 9 0
BBX 6 16 2 0
BITMAP
20
30
48
00
FC
80
80
80
80
FC
80
80
80
80
80
FC
ENDCHAR
STARTCHAR 00CB
ENCODING 203
SWIDTH 562 0
DWIDTH 9 0
BBX 6 15 2 0
BITMAP
C8
C8
00
FC
80
80
80
80
FC
80
80
80
80
80
FC
ENDCHAR
STARTCHAR 00CC
ENCODING 204
SWIDTH 562 0
DWIDTH 9 0
BBX 7 16 1 0
BITMAP
20
10
08
00
FE
18
18
18
18
18
18
18
18
18
18
FE
ENDCHAR
STARTCHAR 00CD
ENCODING 205
SWIDTH 562 0
DWIDTH 9 0
BBX 7 16 1 0
BITMAP
08
10
20
00
FE
18
18
18
18
18
18
18
18
18
18
FE
ENDCHAR
STARTCHAR 00CE
ENCODING 206
SWIDTH 562 0
DWIDTH 9 0
BBX 7 16 1 0
BITMAP
10
18
24
00
FE
18
18
18
18
18
18
18
18
18
18
FE
ENDCHAR
STARTCHAR 00CF
ENCODING 207
SWIDTH 562 0
DWIDTH 9 0
BBX 7 15 1 0
BITMAP
64
64
00
FE
18
18
18
18
18
18
18
18
18
18
FE
ENDCHAR
STARTCHAR 00D0
ENCODING 208
SWIDTH 562 0
DWIDTH 9 0
BBX 9 12 0 0
BITMAP
7E00
6300
6100
6180
6180
F980
6180
6180
6180
6100
6700
7E00
ENDCHAR
STARTCHAR 00D1
ENCODING 209
SWIDTH 562 0
DWIDTH 9 0
BBX 8 15 1 0
BITMAP
34
4C
00
C3
C3
E3
A3
B3
93
9B
8B
8F
87
87
83
ENDCHAR
STARTCHAR 00D2
ENCODING 210
SWIDTH 562 0
DWIDTH 9 0
BBX 8 16 1 0
BITMAP
20
10
08
00
7C
46
C3
83
83
83
83
83
83
C3
46
7C
ENDCHAR
STARTCHAR 00D3
ENCODING 211
SWIDTH 562 0
DWIDTH 9 0
BBX 8 16 1 0
BITMAP
08
10
20
00
7C
46
C3
83
83
83
83
83
83
C3
46
7C
ENDCHAR
STARTCHAR 00D4
ENCODING 212
SWIDTH 562 0
DWIDTH 9 0
BBX 8 16 1 0
BITMAP
10
18
24
00
7C
46
C3
83
83
83
83
83
83
C3
46
7C
ENDCHAR
STARTCHAR 00D5
ENCODING 213
SWIDTH 562 0
DWIDTH 9 0
BBX 8 15 1 0
BITMAP
34
4C
00
7C
46
C3
83
83
83
83
83
83
C3
46
7C
ENDCHAR
STARTCHAR 00D6
ENCODING 214
SWIDTH 562 0
DWIDTH 9 0
BBX 8 15 1 0
BITMAP
64
64
00
7C
46
C3
83
83
83
83
83
83
C3
46
7C
ENDCHAR
STARTCHAR 00D7
ENCODING 215
SWIDTH 562 0
DWIDTH 9 0
BBX 8 8 1 0
BITMAP
83
46
2C
18
38
64
C2
81
ENDCHAR
STARTCHAR 00D8
ENCODING 216
SWIDTH 562 0
DWIDTH 9 0
BBX 8 14 1 -1
BITMAP
01
7E
C2
C7
87
8B
8B
93
B3
A3
C2
46
FC
80
ENDCHAR
STARTCHAR 00D9
ENCODING 217
SWIDTH 562 0
DWIDTH 9 0
BBX 8 16 1 0
BITMAP
20
10
08
00
C3
C3
C3
C3
C3
C3
C3
C3
C3
C2
C6
7C
ENDCHAR
STARTCHAR 00DA
ENCODING 218
SWIDTH 562 0
DWIDTH 9 0
BBX 8 16 1 0
BITMAP
08
10
20
00
C3
C3
C3
C3
C3
C3
C3
C3
C3
C2
C6
7C
ENDCHAR
STARTCHAR 00DB
ENCODING 219
SWIDTH 562 0
DWIDTH 9 0
BBX 8 16 1 0
BITMAP
10
18
24
00
C3
C3
C3
C3
C3
C3
C3
C3
C3
C2
C6
7C
ENDCHAR
STARTCHAR 00DC
ENCODING 220
SWIDTH 562 0
DWIDTH 9 0
BBX 8 15 1 0
BITMAP
64
64
00
C3
C3
C3
C3
C3
C3
C3
C3
C3
C2
C6
7C
ENDCHAR
STARTCHAR 00DD
ENCODING 221
SWIDTH 562 0
DWIDTH 9 0
BBX 8 16 1 0
BITMAP
08
10
20
00
C3
C2
66
64
3C
18
18
18
18
18
18
18
ENDCHAR
STARTCHAR 00DE
ENCODING 222
SWIDTH 562 0
DWIDTH 9 0
BBX 8 12 1 0
BITMAP
C0
C0
FC
C6
C3
C3
C3
C2
FC
F0
C0
C0
ENDCHAR
STARTCHAR 00DF
ENCODING 223
SWIDTH 562 0
DWIDTH 9 0
BBX 8 13 1 0
BITMAP
38
6C
C4
8C
98
B0
B0
98
8E
83
83
83
9E
ENDCHAR
STARTCHAR 00E0
ENCODING 224
SWIDTH 562 0
DWIDTH 9 0
BBX 8 13 1 0
BITMAP
10
08
04
00
1E
72
C2
C2
82
82
C6
CE
7B
ENDCHAR
STARTCHAR 00E1
ENCODING 225
SWIDTH 562 0
DWIDTH 9 0
BBX 8 13 1 0
BITMAP
04
08
10
00
1E
72
C2
C2
82
82
C6
CE
7B
ENDCHAR
STARTCHAR 00E2
ENCODING 226
SWIDTH 562 0
DWIDTH 9 0
BBX 8 13 1 0
BITMAP
08
0C
12
00
1E
72
C2
C2
82
82
C6
CE
7B
ENDCHAR
STARTCHAR 00E3
ENCODING 227
SWIDTH 562 0
DWIDTH 9 0
BBX 8 12 1 0
BITMAP
34
4C
00
1E
72
C2
C2
82
82
C6
CE
7B
ENDCHAR
STARTCHAR 00E4
ENCODING 228
SWIDTH 562 0
DWIDTH 9 0
BBX 8 12 1 0
BITMAP
64
64
00
1E
72
C2
C2
82
82
C6
CE
7B
ENDCHAR
STARTCHAR 00E5
ENCODING 229
SWIDTH 562 0
DWIDTH 9 0
BBX 8 13 1 0
BITMAP
18
28
18
00
1E
72
C2
C2
82
82
C6
CE
7B
ENDCHAR
STARTCHAR 00E6
ENCODING 230
SWIDTH 562 0
DWIDTH 9 0
BBX 8 9 1 0
BITMAP
76
DB
99
99
9F
98
98
F8
EF
ENDCHAR
STARTCHAR 00E7
ENCODING 231
SWIDTH 562 0
DWIDTH 9 0
BBX 8 12 1 -3
BITMAP
1E
73
40
C0
C0
C0
40
61
3F
08
1C
0C
ENDCHAR
STARTCHAR 00E8
ENCODING 232
SWIDTH 562 0
DWIDTH 9 0
BBX 8 13 1 0
BITMAP
10
08
04
00
3C
66
C2
C3
FF
C0
C0
60
3E
ENDCHAR
STARTCHAR 00E9
ENCODING 233
SWIDTH 562 0
DWIDTH 9 0
BBX 8 13 1 0
BITMAP
04
08
10
00
3C
66
C2
C3
FF
C0
C0
60
3E
ENDCHAR
STARTCHAR 00EA
ENCODING 234
SWIDTH 562 0
DWIDTH 9 0
BBX 8 13 1 0
BITMAP
10
18
24
00
3C
66
C2
C3
FF
C0
C0
60
3E
ENDCHAR
STARTCHAR 00EB
ENCODING 235
SWIDTH 562 0
DWIDTH 9 0
BBX 8 12 1 0
BITMAP
64
64
00
3C
66
C2
C3
FF
C0
C0
60
3E
ENDCHAR
STARTCHAR 00EC
ENCODING 236
SWIDTH 562 0
DWIDTH 9 0
BBX 7 13 1 0
BITMAP
20
10
08
00
F0
10
10
10
10
10
10
10
1E
ENDCHAR
STARTCHAR 00ED
ENCODING 237
SWIDTH 562 0
DWIDTH 9 0
BBX 7 13 1 0
BITMAP
08
10
20
00
F0
10
10
10
10
10
10
10
1E
ENDCHAR
STARTCHAR 00EE
ENCODING 238
SWIDTH 562 0
DWIDTH 9 0
BBX 7 13 1 0
BITMAP
10
18
24
00
F0
10
10
10
10
10
10
10
1E
ENDCHAR
STARTCHAR 00EF
ENCODING 239
SWIDTH 562 0
DWIDTH 9 0
BBX 7 12 1 0
BITMAP
64
64
00
F0
10
10
10
10
10
10
10
1E
ENDCHAR
STARTCHAR 00F0
ENCODING 240
SWIDTH 562 0
DWIDTH 9 0
BBX 8 14 1 0
BITMAP
04
CC
F8
3C
66
02
7F
C3
83
83
83
C3
C6
7C
ENDCHAR
STARTCHAR 00F1
ENCODING 241
SWIDTH 562 0
DWIDTH 9 0
BBX 8 12 1 0
BITMAP
34
4C
00
DC
F6
E2
C2
C3
C3
C3
C3
C3
ENDCHAR
STARTCHAR 00F2
ENCODING 242
SWIDTH 562 0
DWIDTH 9 0
BBX 8 13 1 0
BITMAP
20
10
08
00
3C
66
C3
83
83
83
C3
C6
7C
ENDCHAR
STARTCHAR 00F3
ENCODING 243
SWIDTH 562 0
DWIDTH 9 0
BBX 8 13 1 0
BITMAP
08
10
20
00
3C
66
C3
83
83
83
C3
C6
7C
ENDCHAR
STARTCHAR 00F4
ENCODING 244
SWIDTH 562 0
DWIDTH 9 0
BBX 8 13 1 0
BITMAP
10
18
24
00
3C
66
C3
83
83
83
C3
C6
7C
ENDCHAR
STARTCHAR 00F5
ENCODING 245
SWIDTH 562 0
DWIDTH 9 0
BBX 8 12 1 0
BITMAP
34
4C
00
3C
66
C3
83
83
83
C3
C6
7C
ENDCHAR
STARTCHAR 00F6
ENCODING 246
SWIDTH 562 0
DWIDTH 9 0
BBX 8 12 1 0
BITMAP
64
64
00
3C
66
C3
83
83
83
C3
C6
7C
ENDCHAR
STARTCHAR 00F7
ENCODING 247
SWIDTH 562 0
DWIDTH 9 0
BBX 8 8 1 0
BITMAP
18
18
00
FF
00
00
18
18
ENDCHAR
STARTCHAR 00F8
ENCODING 248
SWIDTH 562 0
DWIDTH 9 0
BBX 8 10 1 -1
BITMAP
3E
66
C7
8B
93
93
E3
46
7C
80
ENDCHAR
STARTCHAR 00F9
ENCODING 249
SWIDTH 562 0
DWIDTH 9 0
BBX 7 13 1 0
BITMAP
20
10
08
00
C2
C2
C2
C2
C2
C2
C6
CE
7A
ENDCHAR
STARTCHAR 00FA
ENCODING 250
SWIDTH 562 0
DWIDTH 9 0
BBX 7 13 1 0
BITMAP
04
08
10
00
C2
C2
C2
C2
C2
C2
C6
CE
7A
ENDCHAR
STARTCHAR 00FB
ENCODING 251
SWIDTH 562 0
DWIDTH 9 0
BBX 7 13 1 0
BITMAP
10
18
24
00
C2
C2
C2
C2
C2
C2
C6
CE
7A
ENDCHAR
STARTCHAR 00FC
ENCODING 252
SWIDTH 562 0
DWIDTH 9 0
BBX 7 12 1 0
BITMAP
64
64
00
C2
C2
C2
C2
C2
C2
C6
CE
7A
ENDCHAR
STARTCHAR 00FD
ENCODING 253
SWIDTH 562 0
DWIDTH 9 0
BBX 9 17 0 -4
BITMAP
0200
0400
0800
0000
4080
6080
2180
3100
1300
1A00
0E00
0C00
0C00
0C00
0800
F000
E000
ENDCHAR
STARTCHAR 00FE
ENCODING 254
SWIDTH 562 0
DWIDTH 9 0
BBX 8 15 1 -3
BITMAP
C0
C0
C0
DC
F6
E3
C3
C3
C2
C6
CE
F8
C0
C0
C0
ENDCHAR
STARTCHAR 00FF
ENCODING 255
SWIDTH 562 0
DWIDTH 9 0
BBX 9 16 0 -4
BITMAP
3200
3200
0000
4080
6080
2180
3100
1300
1A00
0E00
0C00
0C00
0C00
0800
F000
E000
ENDCHAR
STARTCHAR 0100
ENCODING 256
SWIDTH 562 0
DWIDTH 9 0
BBX 9 14 0 0
BITMAP
1E00
0000
0C00
0C00
1C00
1600
1600
3200
2300
2300
7F00
6180
4180
C080
ENDCHAR
STARTCHAR 0101
ENCODING 257
SWIDTH 562 0
DWIDTH 9 0
BBX 8 11 1 0
BITMAP
3C
00
1E
72
C2
C2
82
82
C6
CE
7B
ENDCHAR
STARTCHAR 0102
ENCODING 258
SWIDTH 562 0
DWIDTH 9 0
BBX 9 16 0 0
BITMAP
1200
1200
0C00
0000
0C00
0C00
1C00
1600
1600
3200
2300
2300
7F00
6180
4180
C080
ENDCHAR
STARTCHAR 0103
ENCODING 259
SWIDTH 562 0
DWIDTH 9 0
BBX 8 13 1 0
BITMAP
24
24
18
00
1E
72
C2
C2
82
82
C6
CE
7B
ENDCHAR
STARTCHAR 0104
ENCODING 260
SWIDTH 562 0
DWIDTH 9 0
BBX 9 15 0 -3
BITMAP
0C00
0C00
1C00
1600
1600
3200
2300
2300
7F00
6180
4180
C080
0100
0100
0180
ENDCHAR
STARTCHAR 0105
ENCODING 261
SWIDTH 562 0
DWIDTH 9 0
BBX 8 12 1 -3
BITMAP
1E
72
C2
C2
82
82
C6
CE
7B
02
02
03
ENDCHAR
STARTCHAR 0106
ENCODING 262
SWIDTH 562 0
DWIDTH 9 0
BBX 8 16 1 0
BITMAP
02
04
08
00
3F
60
40
C0
C0
C0
C0
C0
C0
40
61
3F
ENDCHAR
STARTCHAR 0107
ENCODING 263
SWIDTH 562 0
DWIDTH 9 0
BBX 8 13 1 0
BITMAP
04
08
10
00
1E
73
40
C0
C0
C0
40
61
3F
ENDCHAR
STARTCHAR 0108
ENCODING 264
SWIDTH 562 0
DWIDTH 9 0
BBX 8 16 1 0
BITMAP
08
0C
12
00
3F
60
40
C0
C0
C0
C0
C0
C0
40
61
3F
ENDCHAR
STARTCHAR 0109
ENCODING 265
SWIDTH 562 0
DWIDTH 9 0
BBX 8 13 1 0
BITMAP
08
0C
12
00
1E
73
40
C0
C0
C0
40
61
3F
ENDCHAR
STARTCHAR 010A
ENCODING 266
SWIDTH 562 0
DWIDTH 9 0
BBX 8 16 1 0
BITMAP
08
0C
0C
00
3F
60
40
C0
C0
C0
C0
C0
C0
40
61
3F
ENDCHAR
STARTCHAR 010B
ENCODING 267
SWIDTH 562 0
DWIDTH 9 0
BBX 8 13 1 0
BITMAP
08
0C
0C
00
1E
73
40
C0
C0
C0
40
61
3F
ENDCHAR
STARTCHAR 010C
ENCODING 268
SWIDTH 562 0
DWIDTH 9 0
BBX 8 16 1 0
BITMAP
12
1C
0C
00
3F
60
40
C0
C0
C0
C0
C0
C0
40
61
3F
ENDCHAR
STARTCHAR 010D
ENCODING 269
SWIDTH 562 0
DWIDTH 9 0
BBX 8 13 1 0
BITMAP
12
1C
0C
00
1E
73
40
C0
C0
C0
40
61
3F
ENDCHAR
STARTCHAR 010E
ENCODING 270
SWIDTH 562 0
DWIDTH 9 0
BBX 8 16 1 0
BITMAP
24
38
18
00
FC
C6
C2
C3
C3
C3
C3
C3
C3
C2
CE
FC
ENDCHAR
STARTCHAR 010F
ENCODING 271
SWIDTH 562 0
DWIDTH 9 0
BBX 11 16 1 0
BITMAP
00E0
0060
0020
0320
03C0
0300
0300
1F00
7300
4300
C300
C300
8300
C700
CF00
7B00
ENDCHAR
STARTCHAR 0110
ENCODING 272
SWIDTH 562 0
DWIDTH 9 0
BBX 9 12 0 0
BITMAP
7E00
6300
6100
6180
6180
F980
6180
6180
6180
6100
6700
7E00
ENDCHAR
STARTCHAR 0111
ENCODING 273
SWIDTH 562 0
DWIDTH 9 0
BBX 9 13 1 0
BITMAP
0300
0300
0780
0300
1F00
7300
4300
C300
C300
C300
C700
CF00
7B00
ENDCHAR
STARTCHAR 0112
ENCODING 274
SWIDTH 562 0
DWIDTH 9 0
BBX 6 14 2 0
BITMAP
78
00
FC
80
80
80
80
FC
80
80
80
80
80
FC
ENDCHAR
STARTCHAR 0113
ENCODING 275
SWIDTH 562 0
DWIDTH 9 0
BBX 8 11 1 0
BITMAP
3C
00
3C
66
C2
C3
FF
C0
C0
60
3E
ENDCHAR
STARTCHAR 0114
ENCODING 276
SWIDTH 562 0
DWIDTH 9 0
BBX 6 16 2 0
BITMAP
48
48
30
00
FC
80
80
80
80
FC
80
80
80
80
80
FC
ENDCHAR
STARTCHAR 0115
ENCODING 277
SWIDTH 562 0
DWIDTH 9 0
BBX 8 13 1 0
BITMAP
24
24
18
00
3C
66
C2
C3
FF
C0
C0
60
3E
ENDCHAR
STARTCHAR 0116
ENCODING 278
SWIDTH 562 0
DWIDTH 9 0
BBX 6 16 2 0
BITMAP
20
30
30
00
FC
80
80
80
80
FC
80
80
80
80
80
FC
ENDCHAR
STARTCHAR 0117
ENCODING 279
SWIDTH 562 0
DWIDTH 9 0
BBX 8 13 1 0
BITMAP
10
18
18
00
3C
66
C2
C3
FF
C0
C0
60
3E
ENDCHAR
STARTCHAR 0118
ENCODING 280
SWIDTH 562 0
DWIDTH 9 0
BBX 6 15 2 -3
BITMAP
FC
80
80
80
80
FC
80
80
80
80
80
FC
20
20
30
ENDCHAR
STARTCHAR 0119
ENCODING 281
SWIDTH 562 0
DWIDTH 9 0
BBX 8 12 1 -3
BITMAP
3C
66
C2
C3
FF
C0
C0
60
3E
10
10
18
ENDCHAR
STARTCHAR 011A
ENCODING 282
SWIDTH 562 0
DWIDTH 9 0
BBX 6 16 2 0
BITMAP
48
70
30
00
FC
80
80
80
80
FC
80
80
80
80
80
FC
ENDCHAR
STARTCHAR 011B
ENCODING 283
SWIDTH 562 0
DWIDTH 9 0
BBX 8 13 1 0
BITMAP
24
38
18
00
3C
66
C2
C3
FF
C0
C0
60
3E
ENDCHAR
STARTCHAR 011C
ENCODING 284
SWIDTH 562 0
DWIDTH 9 0
BBX 8 16 1 0
BITMAP
08
0C
12
00
3F
60
40
C0
C0
C0
C7
C3
C3
43
63
3F
ENDCHAR
STARTCHAR 011D
ENCODING 285
SWIDTH 562 0
DWIDTH 9 0
BBX 8 17 1 -4
BITMAP
10
18
24
00
1F
73
43
C3
C3
83
C6
CE
7A
02
02
FC
30
ENDCHAR
STARTCHAR 011E
ENCODING 286
SWIDTH 562 0
DWIDTH 9 0
BBX 8 16 1 0
BITMAP
12
12
0C
00
3F
60
40
C0
C0
C0
C7
C3
C3
43
63
3F
ENDCHAR
STARTCHAR 011F
ENCODING 287
SWIDTH 562 0
DWIDTH 9 0
BBX 8 17 1 -4
BITMAP
12
12
0C
00
1F
73
43
C3
C3
C3
C7
CF
7B
02
02
FC
38
ENDCHAR
STARTCHAR 0120
ENCODING 288
SWIDTH 562 0
DWIDTH 9 0
BBX 8 16 1 0
BITMAP
08
0C
0C
00
3F
60
40
C0
C0
C0
C7
C3
C3
43
63
3F
ENDCHAR
STARTCHAR 0121
ENCODING 289
SWIDTH 562 0
DWIDTH 9 0
BBX 8 17 1 -4
BITMAP
10
18
18
00
1F
73
43
C3
C3
83
C6
CE
7A
02
02
FC
30
ENDCHAR
STARTCHAR 0122
ENCODING 290
SWIDTH 562 0
DWIDTH 9 0
BBX 8 18 1 -5
BITMAP
3F
60
40
C0
C0
C0
C7
C3
C3
43
63
3F
00
1C
0C
04
04
18
ENDCHAR
STARTCHAR 0123
ENCODING 291
SWIDTH 562 0
DWIDTH 9 0
BBX 8 17 1 -4
BITMAP
04
08
10
00
1F
73
43
C3
C3
83
C6
CE
7A
02
02
FC
30
ENDCHAR
STARTCHAR 0124
ENCODING 292
SWIDTH 562 0
DWIDTH 9 0
BBX 8 16 1 0
BITMAP
10
18
24
00
C3
C3
C3
C3
C3
FF
C3
C3
C3
C3
C3
C3
ENDCHAR
STARTCHAR 0125
ENCODING 293
SWIDTH 562 0
DWIDTH 9 0
BBX 7 16 1 0
BITMAP
20
30
48
C0
C0
C0
C0
DC
F6
E2
C2
C2
C2
C2
C2
C2
ENDCHAR
STARTCHAR 0126
ENCODING 294
SWIDTH 562 0
DWIDTH 9 0
BBX 8 12 1 0
BITMAP
C3
C3
C3
FF
C3
FF
C3
C3
C3
C3
C3
C3
ENDCHAR
STARTCHAR 0127
ENCODING 295
SWIDTH 562 0
DWIDTH 9 0
BBX 7 13 1 0
BITMAP
C0
C0
F0
C0
DC
F6
E2
C2
C2
C2
C2
C2
C2
ENDCHAR
STARTCHAR 0128
ENCODING 296
SWIDTH 562 0
DWIDTH 9 0
BBX 7 15 1 0
BITMAP
34
4C
00
FE
18
18
18
18
18
18
18
18
18
18
FE
ENDCHAR
STARTCHAR 0129
ENCODING 297
SWIDTH 562 0
DWIDTH 9 0
BBX 7 11 1 0
BITMAP
34
4C
F0
10
10
10
10
10
10
10
1E
ENDCHAR
STARTCHAR 012A
ENCODING 298
SWIDTH 562 0
DWIDTH 9 0
BBX 7 14 1 0
BITMAP
3C
00
FE
18
18
18
18
18
18
18
18
18
18
FE
ENDCHAR
STARTCHAR 012B
ENCODING 299
SWIDTH 562 0
DWIDTH 9 0
BBX 7 10 1 0
BITMAP
3C
F0
10
10
10
10
10
10
10
1E
ENDCHAR
STARTCHAR 012E
ENCODING 302
SWIDTH 562 0
DWIDTH 9 0
BBX 7 15 1 -3
BITMAP
FE
18
18
18
18
18
18
18
18
18
18
FE
10
10
18
ENDCHAR
STARTCHAR 012F
ENCODING 303
SWIDTH 562 0
DWIDTH 9 0
BBX 7 16 1 -3
BITMAP
10
30
00
00
F0
10
10
10
10
10
10
10
1E
10
10
18
ENDCHAR
STARTCHAR 0130
ENCODING 304
SWIDTH 562 0
DWIDTH 9 0
BBX 7 16 1 0
BITMAP
10
18
18
00
FE
18
18
18
18
18
18
18
18
18
18
FE
ENDCHAR
STARTCHAR 0131
ENCODING 305
SWIDTH 562 0
DWIDTH 9 0
BBX 7 9 1 0
BITMAP
F0
10
10
10
10
10
10
10
1E
ENDCHAR
STARTCHAR 0136
ENCODING 310
SWIDTH 562 0
DWIDTH 9 0
BBX 8 18 1 -6
BITMAP
C3
C6
CC
C8
D0
F0
F0
D8
CC
C6
C6
C3
00
1C
0C
04
04
18
ENDCHAR
STARTCHAR 0137
ENCODING 311
SWIDTH 562 0
DWIDTH 9 0
BBX 7 19 2 -6
BITMAP
80
80
80
80
86
8C
98
B0
E0
B0
98
8C
86
00
38
18
08
08
30
ENDCHAR
STARTCHAR 0139
ENCODING 313
SWIDTH 562 0
DWIDTH 9 0
BBX 6 16 2 0
BITMAP
20
40
80
00
80
80
80
80
80
80
80
80
80
80
80
FC
ENDCHAR
STARTCHAR 013A
ENCODING 314
SWIDTH 562 0
DWIDTH 9 0
BBX 7 16 1 0
BITMAP
08
10
20
F0
F0
10
10
10
10
10
10
10
10
10
10
1E
ENDCHAR
STARTCHAR 013B
ENCODING 315
SWIDTH 562 0
DWIDTH 9 0
BBX 6 18 2 -6
BITMAP
80
80
80
80
80
80
80
80
80
80
80
FC
00
70
30
10
10
60
ENDCHAR
STARTCHAR 013C
ENCODING 316
SWIDTH 562 0
DWIDTH 9 0
BBX 7 19 1 -6
BITMAP
F0
F0
10
10
10
10
10
10
10
10
10
10
1E
00
38
18
08
08
30
ENDCHAR
STARTCHAR 013D
ENCODING 317
SWIDTH 562 0
DWIDTH 9 0
BBX 6 12 2 0
BITMAP
9C
8C
84
84
98
80
80
80
80
80
80
FC
ENDCHAR
STARTCHAR 013E
ENCODING 318
SWIDTH 562 0
DWIDTH 9 0
BBX 8 13 1 0
BITMAP
F0
F7
13
11
11
16
10
10
10
10
10
10
1E
ENDCHAR
STARTCHAR 013F
ENCODING 319
SWIDTH 562 0
DWIDTH 9 0
BBX 6 12 2 0
BITMAP
80
80
80
90
98
98
80
80
80
80
80
FC
ENDCHAR
STARTCHAR 0140
ENCODING 320
SWIDTH 562 0
DWIDTH 9 0
BBX 8 13 1 0
BITMAP
F0
F0
10
10
10
12
13
13
10
10
10
10
1E
ENDCHAR
STARTCHAR 0141
ENCODING 321
SWIDTH 562 0
DWIDTH 9 0
BBX 8 12 0 0
BITMAP
20
20
20
20
28
78
E0
20
20
20
20
3F
ENDCHAR
STARTCHAR 0142
ENCODING 322
SWIDTH 562 0
DWIDTH 9 0
BBX 7 13 1 0
BITMAP
F0
F0
10
10
10
1E
38
F0
10
10
10
10
1E
ENDCHAR
STARTCHAR 0143
ENCODING 323
SWIDTH 562 0
DWIDTH 9 0
BBX 8 16 1 0
BITMAP
08
10
20
00
C3
C3
E3
A3
B3
93
9B
8B
8F
87
87
83
ENDCHAR
STARTCHAR 0144
ENCODING 324
SWIDTH 562 0
DWIDTH 9 0
BBX 7 13 1 0
BITMAP
08
10
20
00
DC
F6
E2
C2
C2
C2
C2
C2
C2
ENDCHAR
STARTCHAR 0145
ENCODING 325
SWIDTH 562 0
DWIDTH 9 0
BBX 8 18 1 -6
BITMAP
C3
C3
E3
A3
B3
93
9B
8B
8F
87
87
83
00
38
18
08
08
30
ENDCHAR
STARTCHAR 0146
ENCODING 326
SWIDTH 562 0
DWIDTH 9 0
BBX 7 15 1 -6
BITMAP
DC
F6
E2
C2
C2
C2
C2
C2
C2
00
38
18
08
08
30
ENDCHAR
STARTCHAR 0147
ENCODING 327
SWIDTH 562 0
DWIDTH 9 0
BBX 8 16 1 0
BITMAP
24
38
18
00
C3
C3
E3
A3
B3
93
9B
8B
8F
87
87
83
ENDCHAR
STARTCHAR 0148
ENCODING 328
SWIDTH 562 0
DWIDTH 9 0
BBX 7 13 1 0
BITMAP
24
38
18
00
DC
F6
E2
C2
C2
C2
C2
C2
C2
ENDCHAR
STARTCHAR 014C
ENCODING 332
SWIDTH 562 0
DWIDTH 9 0
BBX 8 14 1 0
BITMAP
3C
00
7C
46
C3
83
83
83
83
83
83
C3
46
7C
ENDCHAR
STARTCHAR 014D
ENCODING 333
SWIDTH 562 0
DWIDTH 9 0
BBX 8 11 1 0
BITMAP
3C
00
3C
66
C3
83
83
83
C3
C6
7C
ENDCHAR
STARTCHAR 014E
ENCODING 334
SWIDTH 562 0
DWIDTH 9 0
BBX 8 16 1 0
BITMAP
24
24
18
00
7C
46
C3
83
83
83
83
83
83
C3
46
7C
ENDCHAR
STARTCHAR 014F
ENCODING 335
SWIDTH 562 0
DWIDTH 9 0
BBX 8 13 1 0
BITMAP
24
24
18
00
3C
66
C3
83
83
83
C3
C6
7C
ENDCHAR
STARTCHAR 0150
ENCODING 336
SWIDTH 562 0
DWIDTH 9 0
BBX 8 16 1 0
BITMAP
14
14
20
00
7C
46
C3
83
83
83
83
83
83
C3
46
7C
ENDCHAR
STARTCHAR 0151
ENCODING 337
SWIDTH 562 0
DWIDTH 9 0
BBX 8 13 1 0
BITMAP
14
14
20
00
3C
66
C3
83
83
83
C3
C6
7C
ENDCHAR
STARTCHAR 0152
ENCODING 338
SWIDTH 562 0
DWIDTH 9 0
BBX 9 12 0 0
BITMAP
3F80
6400
4400
C400
C400
C780
C400
C400
4400
4400
6400
3F80
ENDCHAR
STARTCHAR 0153
ENCODING 339
SWIDTH 562 0
DWIDTH 9 0
BBX 8 9 1 0
BITMAP
66
DB
99
99
9F
98
98
98
7F
ENDCHAR
STARTCHAR 0154
ENCODING 340
SWIDTH 562 0
DWIDTH 9 0
BBX 8 16 1 0
BITMAP
04
08
10
00
FC
C6
C2
C2
C6
CC
F8
CC
CC
C6
C2
C3
ENDCHAR
STARTCHAR 0155
ENCODING 341
SWIDTH 562 0
DWIDTH 9 0
BBX 7 13 2 0
BITMAP
08
10
20
00
9E
B6
C6
C0
80
80
80
80
80
ENDCHAR
STARTCHAR 0156
ENCODING 342
SWIDTH 562 0
DWIDTH 9 0
BBX 8 18 1 -6
BITMAP
FC
C6
C2
C2
C6
CC
F8
CC
CC
C6
C2
C3
00
38
18
08
08
30
ENDCHAR
STARTCHAR 0157
ENCODING 343
SWIDTH 562 0
DWIDTH 9 0
BBX 7 15 2 -6
BITMAP
9E
B6
C6
C0
80
80
80
80
80
00
70
30
10
10
60
ENDCHAR
STARTCHAR 0158
ENCODING 344
SWIDTH 562 0
DWIDTH 9 0
BBX 8 16 1 0
BITMAP
24
38
18
00
FC
C6
C2
C2
C6
CC
F8
CC
CC
C6
C2
C3
ENDCHAR
STARTCHAR 0159
ENCODING 345
SWIDTH 562 0
DWIDTH 9 0
BBX 7 13 2 0
BITMAP
48
70
30
00
9E
B6
C6
C0
80
80
80
80
80
ENDCHAR
STARTCHAR 015A
ENCODING 346
SWIDTH 562 0
DWIDTH 9 0
BBX 8 16 1 0
BITMAP
08
10
20
00
7E
40
C0
C0
60
38
0C
06
03
03
86
FC
ENDCHAR
STARTCHAR 015B
ENCODING 347
SWIDTH 562 0
DWIDTH 9 0
BBX 7 13 1 0
BITMAP
08
10
20
00
3E
62
40
60
3C
0E
02
82
FE
ENDCHAR
STARTCHAR 015C
ENCODING 348
SWIDTH 562 0
DWIDTH 9 0
BBX 8 16 1 0
BITMAP
10
18
24
00
7E
40
C0
C0
60
38
0C
06
03
03
86
FC
ENDCHAR
STARTCHAR 015D
ENCODING 349
SWIDTH 562 0
DWIDTH 9 0
BBX 7 13 1 0
BITMAP
10
18
24
00
3E
62
40
60
3C
0E
02
82
FE
ENDCHAR
STARTCHAR 015E
ENCODING 350
SWIDTH 562 0
DWIDTH 9 0
BBX 8 18 1 -6
BITMAP
7E
40
C0
C0
60
38
0C
06
03
03
86
FC
00
38
18
08
08
30
ENDCHAR
STARTCHAR 015F
ENCODING 351
SWIDTH 562 0
DWIDTH 9 0
BBX 7 15 1 -6
BITMAP
3E
62
40
60
3C
0E
02
82
FE
00
38
18
08
08
30
ENDCHAR
STARTCHAR 0160
ENCODING 352
SWIDTH 562 0
DWIDTH 9 0
BBX 8 16 1 0
BITMAP
24
38
18
00
7E
40
C0
C0
60
38
0C
06
03
03
86
FC
ENDCHAR
STARTCHAR 0161
ENCODING 353
SWIDTH 562 0
DWIDTH 9 0
BBX 7 13 1 0
BITMAP
24
38
18
00
3E
62
40
60
3C
0E
02
82
FE
ENDCHAR
STARTCHAR 0162
ENCODING 354
SWIDTH 562 0
DWIDTH 9 0
BBX 9 18 0 -6
BITMAP
FF80
0C00
0C00
0C00
0C00
0C00
0C00
0C00
0C00
0C00
0C00
0C00
0000
1C00
0C00
0400
0400
1800
ENDCHAR
STARTCHAR 0163
ENCODING 355
SWIDTH 562 0
DWIDTH 9 0
BBX 8 18 1 -6
BITMAP
20
20
20
20
FE
20
20
20
20
20
31
1F
00
38
18
08
08
30
ENDCHAR
STARTCHAR 0164
ENCODING 356
SWIDTH 562 0
DWIDTH 9 0
BBX 9 16 0 0
BITMAP
1200
1C00
0C00
0000
FF80
0C00
0C00
0C00
0C00
0C00
0C00
0C00
0C00
0C00
0C00
0C00
ENDCHAR
STARTCHAR 0165
ENCODING 357
SWIDTH 562 0
DWIDTH 9 0
BBX 10 14 1 0
BITMAP
01C0
00C0
2040
2040
2180
2000
FE00
2000
2000
2000
2000
2000
3100
1F00
ENDCHAR
STARTCHAR 0166
ENCODING 358
SWIDTH 562 0
DWIDTH 9 0
BBX 9 12 0 0
BITMAP
FF80
0C00
0C00
0C00
0C00
1E00
0C00
0C00
0C00
0C00
0C00
0C00
ENDCHAR
STARTCHAR 0167
ENCODING 359
SWIDTH 562 0
DWIDTH 9 0
BBX 8 12 1 0
BITMAP
20
20
20
20
FE
20
3C
20
20
20
31
1F
ENDCHAR
STARTCHAR 0168
ENCODING 360
SWIDTH 562 0
DWIDTH 9 0
BBX 8 15 1 0
BITMAP
34
4C
00
C3
C3
C3
C3
C3
C3
C3
C3
C3
C2
C6
7C
ENDCHAR
STARTCHAR 0169
ENCODING 361
SWIDTH 562 0
DWIDTH 9 0
BBX 7 11 1 0
BITMAP
34
4C
C2
C2
C2
C2
C2
C2
C6
CE
7A
ENDCHAR
STARTCHAR 016A
ENCODING 362
SWIDTH 562 0
DWIDTH 9 0
BBX 8 14 1 0
BITMAP
3C
00
C3
C3
C3
C3
C3
C3
C3
C3
C3
C2
C6
7C
ENDCHAR
STARTCHAR 016B
ENCODING 363
SWIDTH 562 0
DWIDTH 9 0
BBX 7 10 1 0
BITMAP
3C
C2
C2
C2
C2
C2
C2
C6
CE
7A
ENDCHAR
STARTCHAR 016C
ENCODING 364
SWIDTH 562 0
DWIDTH 9 0
BBX 8 16 1 0
BITMAP
24
24
18
00
C3
C3
C3
C3
C3
C3
C3
C3
C3
C2
C6
7C
ENDCHAR
STARTCHAR 016D
ENCODING 365
SWIDTH 562 0
DWIDTH 9 0
BBX 7 12 1 0
BITMAP
24
24
18
C2
C2
C2
C2
C2
C2
C6
CE
7A
ENDCHAR
STARTCHAR 016E
ENCODING 366
SWIDTH 562 0
DWIDTH 9 0
BBX 8 16 1 0
BITMAP
18
28
18
00
C3
C3
C3
C3
C3
C3
C3
C3
C3
C2
C6
7C
ENDCHAR
STARTCHAR 016F
ENCODING 367
SWIDTH 562 0
DWIDTH 9 0
BBX 7 12 1 0
BITMAP
18
28
18
C2
C2
C2
C2
C2
C2
C6
CE
7A
ENDCHAR
STARTCHAR 0170
ENCODING 368
SWIDTH 562 0
DWIDTH 9 0
BBX 8 16 1 0
BITMAP
14
14
20
00
C3
C3
C3
C3
C3
C3
C3
C3
C3
C2
C6
7C
ENDCHAR
STARTCHAR 0171
ENCODING 369
SWIDTH 562 0
DWIDTH 9 0
BBX 7 12 1 0
BITMAP
14
14
20
C2
C2
C2
C2
C2
C2
C6
CE
7A
ENDCHAR
STARTCHAR 0172
ENCODING 370
SWIDTH 562 0
DWIDTH 9 0
BBX 8 15 1 -3
BITMAP
C3
C3
C3
C3
C3
C3
C3
C3
C3
C2
C6
7C
10
10
18
ENDCHAR
STARTCHAR 0173
ENCODING 371
SWIDTH 562 0
DWIDTH 9 0
BBX 7 12 1 -3
BITMAP
C2
C2
C2
C2
C2
C2
C6
CE
7A
04
04
06
ENDCHAR
STARTCHAR 0174
ENCODING 372
SWIDTH 562 0
DWIDTH 9 0
BBX 9 16 0 0
BITMAP
0800
0C00
1200
0000
CC80
CC80
4C80
5C80
5480
5780
5780
7300
7300
7300
6300
2300
ENDCHAR
STARTCHAR 0175
ENCODING 373
SWIDTH 562 0
DWIDTH 9 0
BBX 9 12 0 0
BITMAP
0800
0C00
1200
CC80
CC80
4C80
5480
5680
5380
7300
6300
6100
ENDCHAR
STARTCHAR 0176
ENCODING 374
SWIDTH 562 0
DWIDTH 9 0
BBX 8 16 1 0
BITMAP
10
18
24
00
C3
C2
66
64
3C
18
18
18
18
18
18
18
ENDCHAR
STARTCHAR 0177
ENCODING 375
SWIDTH 562 0
DWIDTH 9 0
BBX 9 16 0 -4
BITMAP
0800
0C00
1200
4080
6180
6100
3100
3300
1A00
1E00
0C00
0C00
0800
1800
F000
E000
ENDCHAR
STARTCHAR 0178
ENCODING 376
SWIDTH 562 0
DWIDTH 9 0
BBX 8 15 1 0
BITMAP
64
64
00
C3
C2
66
64
3C
18
18
18
18
18
18
18
ENDCHAR
STARTCHAR 0179
ENCODING 377
SWIDTH 562 0
DWIDTH 9 0
BBX 8 16 1 0
BITMAP
08
10
20
00
FF
06
06
0C
08
18
30
30
60
40
C0
FF
ENDCHAR
STARTCHAR 017A
ENCODING 378
SWIDTH 562 0
DWIDTH 9 0
BBX 8 12 1 0
BITMAP
08
10
20
FE
06
04
0C
18
30
60
C0
FF
ENDCHAR
STARTCHAR 017B
ENCODING 379
SWIDTH 562 0
DWIDTH 9 0
BBX 8 16 1 0
BITMAP
10
18
18
00
FF
06
06
0C
08
18
30
30
60
40
C0
FF
ENDCHAR
STARTCHAR 017C
ENCODING 380
SWIDTH 562 0
DWIDTH 9 0
BBX 8 12 1 0
BITMAP
10
18
18
FE
06
04
0C
18
30
60
C0
FF
ENDCHAR
STARTCHAR 017D
ENCODING 381
SWIDTH 562 0
DWIDTH 9 0
BBX 8 16 1 0
BITMAP
24
38
18
00
FF
06
06
0C
08
18
30
30
60
40
C0
FF
ENDCHAR
STARTCHAR 017E
ENCODING 382
SWIDTH 562 0
DWIDTH 9 0
BBX 8 13 1 0
BITMAP
24
38
18
00
FE
06
04
0C
18
30
60
C0
FF
ENDCHAR
STARTCHAR 0192
ENCODING 402
SWIDTH 562 0
DWIDTH 9 0
BBX 9 16 1 -3
BITMAP
0780
0C00
1800
1000
3000
FE00
2000
2000
2000
6000
6000
4000
4000
4000
C000
C000
ENDCHAR
STARTCHAR 02C6
ENCODING 710
SWIDTH 562 0
DWIDTH 9 0
BBX 4 3 3 10
BITMAP
40
60
90
ENDCHAR
STARTCHAR 02C7
ENCODING 711
SWIDTH 562 0
DWIDTH 9 0
BBX 4 3 3 10
BITMAP
90
E0
60
ENDCHAR
STARTCHAR 02C9
ENCODING 713
SWIDTH 562 0
DWIDTH 9 0
BBX 4 1 3 10
BITMAP
F0
ENDCHAR
STARTCHAR 02D8
ENCODING 728
SWIDTH 562 0
DWIDTH 9 0
BBX 4 3 3 10
BITMAP
90
90
60
ENDCHAR
STARTCHAR 02D9
ENCODING 729
SWIDTH 562 0
DWIDTH 9 0
BBX 2 3 4 10
BITMAP
80
C0
C0
ENDCHAR
STARTCHAR 02DA
ENCODING 730
SWIDTH 562 0
DWIDTH 9 0
BBX 3 3 3 10
BITMAP
60
A0
60
ENDCHAR
STARTCHAR 02DB
ENCODING 731
SWIDTH 562 0
DWIDTH 9 0
BBX 2 3 4 -3
BITMAP
80
80
C0
ENDCHAR
STARTCHAR 02DC
ENCODING 732
SWIDTH 562 0
DWIDTH 9 0
BBX 5 2 2 10
BITMAP
68
98
ENDCHAR
STARTCHAR 02DD
ENCODING 733
SWIDTH 562 0
DWIDTH 9 0
BBX 4 3 3 10
BITMAP
50
50
80
ENDCHAR
STARTCHAR 03C0
ENCODING 960
SWIDTH 562 0
DWIDTH 9 0
BBX 9 9 0 0
BITMAP
7F80
FF80
3300
3300
3300
3300
3300
3300
3300
ENDCHAR
STARTCHAR 2013
ENCODING 8211
SWIDTH 562 0
DWIDTH 9 0
BBX 8 1 1 4
BITMAP
FF
ENDCHAR
STARTCHAR 2014
ENCODING 8212
SWIDTH 562 0
DWIDTH 9 0
BBX 8 1 1 4
BITMAP
FF
ENDCHAR
STARTCHAR 2018
ENCODING 8216
SWIDTH 562 0
DWIDTH 9 0
BBX 3 6 3 7
BITMAP
20
40
40
E0
E0
60
ENDCHAR
STARTCHAR 2019
ENCODING 8217
SWIDTH 562 0
DWIDTH 9 0
BBX 3 6 3 7
BITMAP
60
E0
60
20
60
80
ENDCHAR
STARTCHAR 201A
ENCODING 8218
SWIDTH 562 0
DWIDTH 9 0
BBX 3 5 3 -3
BITMAP
E0
60
20
20
C0
ENDCHAR
STARTCHAR 201C
ENCODING 8220
SWIDTH 562 0
DWIDTH 9 0
BBX 7 6 1 7
BITMAP
22
64
4C
EE
EE
66
ENDCHAR
STARTCHAR 201D
ENCODING 8221
SWIDTH 562 0
DWIDTH 9 0
BBX 7 6 1 7
BITMAP
66
6E
66
22
64
C8
ENDCHAR
STARTCHAR 201E
ENCODING 8222
SWIDTH 562 0
DWIDTH 9 0
BBX 7 5 1 -3
BITMAP
6E
6E
22
26
CC
ENDCHAR
STARTCHAR 2020
ENCODING 8224
SWIDTH 562 0
DWIDTH 9 0
BBX 7 15 1 -3
BITMAP
18
18
10
FE
10
10
10
18
18
18
18
18
18
18
18
ENDCHAR
STARTCHAR 2021
ENCODING 8225
SWIDTH 562 0
DWIDTH 9 0
BBX 7 15 1 -3
BITMAP
18
18
10
FE
10
10
10
10
10
10
FE
FE
10
18
18
ENDCHAR
STARTCHAR 2022
ENCODING 8226
SWIDTH 562 0
DWIDTH 9 0
BBX 6 6 2 3
BITMAP
78
FC
FC
FC
FC
78
ENDCHAR
STARTCHAR 2026
ENCODING 8230
SWIDTH 562 0
DWIDTH 9 0
BBX 8 2 1 0
BITMAP
9B
DB
ENDCHAR
STARTCHAR 2030
ENCODING 8240
SWIDTH 562 0
DWIDTH 9 0
BBX 10 12 0 0
BITMAP
7000
9040
9080
9300
DC00
3000
7900
A680
2440
2440
2480
1B80
ENDCHAR
STARTCHAR 2036
ENCODING 8246
SWIDTH 562 0
DWIDTH 9 0
BBX 5 3 2 9
BITMAP
D0
58
28
ENDCHAR
STARTCHAR 2037
ENCODING 8247
SWIDTH 562 0
DWIDTH 9 0
BBX 7 3 1 9
BITMAP
F4
52
2A
ENDCHAR
STARTCHAR 2039
ENCODING 8249
SWIDTH 562 0
DWIDTH 9 0
BBX 4 9 3 0
BITMAP
10
30
60
C0
80
C0
60
30
10
ENDCHAR
STARTCHAR 203A
ENCODING 8250
SWIDTH 562 0
DWIDTH 9 0
BBX 4 8 3 1
BITMAP
80
40
60
30
30
60
C0
80
ENDCHAR
STARTCHAR 2044
ENCODING 8260
SWIDTH 562 0
DWIDTH 9 0
BBX 8 12 1 0
BITMAP
01
02
06
04
08
18
10
20
20
40
C0
80
ENDCHAR
STARTCHAR 2070
ENCODING 8304
SWIDTH 562 0
DWIDTH 9 0
BBX 5 7 2 5
BITMAP
30
48
48
A8
48
48
70
ENDCHAR
STARTCHAR 2074
ENCODING 8308
SWIDTH 562 0
DWIDTH 9 0
BBX 5 7 2 5
BITMAP
10
30
50
50
F8
10
10
ENDCHAR
STARTCHAR 2075
ENCODING 8309
SWIDTH 562 0
DWIDTH 9 0
BBX 4 7 3 5
BITMAP
E0
80
C0
30
10
10
E0
ENDCHAR
STARTCHAR 2076
ENCODING 8310
SWIDTH 562 0
DWIDTH 9 0
BBX 4 7 3 5
BITMAP
70
80
A0
D0
90
90
60
ENDCHAR
STARTCHAR 2077
ENCODING 8311
SWIDTH 562 0
DWIDTH 9 0
BBX 5 7 2 5
BITMAP
F8
08
10
10
20
20
20
ENDCHAR
STARTCHAR 2078
ENCODING 8312
SWIDTH 562 0
DWIDTH 9 0
BBX 4 7 3 5
BITMAP
E0
90
90
E0
90
90
E0
ENDCHAR
STARTCHAR 2079
ENCODING 8313
SWIDTH 562 0
DWIDTH 9 0
BBX 5 7 2 5
BITMAP
70
88
88
48
38
08
70
ENDCHAR
STARTCHAR 207A
ENCODING 8314
SWIDTH 562 0
DWIDTH 9 0
BBX 4 4 3 6
BITMAP
40
40
F0
40
ENDCHAR
STARTCHAR 207B
ENCODING 8315
SWIDTH 562 0
DWIDTH 9 0
BBX 0 0 2 8
BITMAP
ENDCHAR
STARTCHAR 207C
ENCODING 8316
SWIDTH 562 0
DWIDTH 9 0
BBX 5 2 2 7
BITMAP
78
F8
ENDCHAR
STARTCHAR 207D
ENCODING 8317
SWIDTH 562 0
DWIDTH 9 0
BBX 2 8 4 4
BITMAP
40
80
80
80
80
80
80
40
ENDCHAR
STARTCHAR 207E
ENCODING 8318
SWIDTH 562 0
DWIDTH 9 0
BBX 2 8 4 4
BITMAP
80
80
40
40
40
40
80
80
ENDCHAR
STARTCHAR 2080
ENCODING 8320
SWIDTH 562 0
DWIDTH 9 0
BBX 5 7 2 0
BITMAP
30
48
48
A8
88
48
70
ENDCHAR
STARTCHAR 2081
ENCODING 8321
SWIDTH 562 0
DWIDTH 9 0
BBX 4 7 3 0
BITMAP
60
E0
60
60
60
60
F0
ENDCHAR
STARTCHAR 2082
ENCODING 8322
SWIDTH 562 0
DWIDTH 9 0
BBX 4 7 3 0
BITMAP
E0
30
10
20
40
80
F0
ENDCHAR
STARTCHAR 2083
ENCODING 8323
SWIDTH 562 0
DWIDTH 9 0
BBX 4 7 3 0
BITMAP
E0
10
10
60
10
10
F0
ENDCHAR
STARTCHAR 2084
ENCODING 8324
SWIDTH 562 0
DWIDTH 9 0
BBX 5 7 2 0
BITMAP
10
30
50
50
90
F8
10
ENDCHAR
STARTCHAR 2085
ENCODING 8325
SWIDTH 562 0
DWIDTH 9 0
BBX 4 7 3 0
BITMAP
E0
80
80
F0
10
10
E0
ENDCHAR
STARTCHAR 2086
ENCODING 8326
SWIDTH 562 0
DWIDTH 9 0
BBX 4 7 3 0
BITMAP
60
80
80
F0
90
90
F0
ENDCHAR
STARTCHAR 2087
ENCODING 8327
SWIDTH 562 0
DWIDTH 9 0
BBX 5 7 2 0
BITMAP
F8
08
10
10
10
20
20
ENDCHAR
STARTCHAR 2088
ENCODING 8328
SWIDTH 562 0
DWIDTH 9 0
BBX 5 7 2 0
BITMAP
30
48
48
30
48
88
78
ENDCHAR
STARTCHAR 2089
ENCODING 8329
SWIDTH 562 0
DWIDTH 9 0
BBX 5 7 2 0
BITMAP
30
48
88
48
78
08
70
ENDCHAR
STARTCHAR 208A
ENCODING 8330
SWIDTH 562 0
DWIDTH 9 0
BBX 5 4 2 1
BITMAP
20
20
F8
20
ENDCHAR
STARTCHAR 208B
ENCODING 8331
SWIDTH 562 0
DWIDTH 9 0
BBX 5 1 2 2
BITMAP
F8
ENDCHAR
STARTCHAR 208C
ENCODING 8332
SWIDTH 562 0
DWIDTH 9 0
BBX 5 2 2 2
BITMAP
F8
78
ENDCHAR
STARTCHAR 208D
ENCODING 8333
SWIDTH 562 0
DWIDTH 9 0
BBX 2 8 4 -1
BITMAP
40
80
80
80
80
80
80
40
ENDCHAR
STARTCHAR 208E
ENCODING 8334
SWIDTH 562 0
DWIDTH 9 0
BBX 2 8 4 -1
BITMAP
80
80
40
40
40
40
80
80
ENDCHAR
STARTCHAR 20A3
ENCODING 8355
SWIDTH 562 0
DWIDTH 9 0
BBX 8 12 0 0
BITMAP
3F
20
20
20
20
3F
20
20
20
FC
20
20
ENDCHAR
STARTCHAR 2122
ENCODING 8482
SWIDTH 562 0
DWIDTH 9 0
BBX 10 6 0 6
BITMAP
FCC0
26C0
26C0
2740
2540
2440
ENDCHAR
STARTCHAR 2126
ENCODING 8486
SWIDTH 562 0
DWIDTH 9 0
BBX 9 12 0 0
BITMAP
3E00
2300
6180
4180
4180
4180
4180
4180
4180
6100
3300
F780
ENDCHAR
STARTCHAR 2194
ENCODING 8596
SWIDTH 562 0
DWIDTH 9 0
BBX 8 5 1 2
BITMAP
44
C2
FF
C3
66
ENDCHAR
STARTCHAR 2195
ENCODING 8597
SWIDTH 562 0
DWIDTH 9 0
BBX 5 9 2 0
BITMAP
20
70
E8
20
20
20
A8
78
30
ENDCHAR
STARTCHAR 2196
ENCODING 8598
SWIDTH 562 0
DWIDTH 9 0
BBX 7 7 1 0
BITMAP
70
E0
B0
98
0C
06
02
ENDCHAR
STARTCHAR 2197
ENCODING 8599
SWIDTH 562 0
DWIDTH 9 0
BBX 6 7 2 0
BITMAP
1C
0C
1C
34
60
C0
80
ENDCHAR
STARTCHAR 2198
ENCODING 8600
SWIDTH 562 0
DWIDTH 9 0
BBX 6 7 2 0
BITMAP
80
C0
60
34
1C
0C
1C
ENDCHAR
STARTCHAR 2199
ENCODING 8601
SWIDTH 562 0
DWIDTH 9 0
BBX 7 7 1 0
BITMAP
02
06
0C
98
B0
E0
F0
ENDCHAR
STARTCHAR 21AA
ENCODING 8618
SWIDTH 562 0
DWIDTH 9 0
BBX 8 6 1 2
BITMAP
C0
84
82
FF
03
06
ENDCHAR
STARTCHAR 2202
ENCODING 8706
SWIDTH 562 0
DWIDTH 9 0
BBX 8 13 1 0
BITMAP
20
3C
06
02
1F
3F
43
C1
81
83
82
C6
7C
ENDCHAR
STARTCHAR 2205
ENCODING 8709
SWIDTH 562 0
DWIDTH 9 0
BBX 8 8 1 1
BITMAP
7D
C2
85
89
91
A1
C2
BC
ENDCHAR
STARTCHAR 2206
ENCODING 8710
SWIDTH 562 0
DWIDTH 9 0
BBX 9 12 0 0
BITMAP
0C00
1C00
1600
1600
3200
2300
2300
6100
4180
4180
C080
FF80
ENDCHAR
STARTCHAR 2207
ENCODING 8711
SWIDTH 562 0
DWIDTH 9 0
BBX 9 11 0 0
BITMAP
FF80
4080
4180
6100
2100
2300
3200
1600
1600
1C00
0C00
ENDCHAR
STARTCHAR 220F
ENCODING 8719
SWIDTH 562 0
DWIDTH 9 0
BBX 9 15 0 -3
BITMAP
FF80
2300
2300
2300
2300
2300
2300
2300
2300
2300
2300
2300
2300
2300
2300
ENDCHAR
STARTCHAR 2211
ENCODING 8721
SWIDTH 562 0
DWIDTH 9 0
BBX 8 15 1 -3
BITMAP
FE
C0
60
60
30
30
18
18
10
30
20
60
40
C0
FF
ENDCHAR
STARTCHAR 2212
ENCODING 8722
SWIDTH 562 0
DWIDTH 9 0
BBX 8 1 1 4
BITMAP
FF
ENDCHAR
STARTCHAR 2219
ENCODING 8729
SWIDTH 562 0
DWIDTH 9 0
BBX 2 2 4 4
BITMAP
C0
C0
ENDCHAR
STARTCHAR 221A
ENCODING 8730
SWIDTH 562 0
DWIDTH 9 0
BBX 10 16 0 -3
BITMAP
01C0
0100
0100
0100
0300
0200
0200
0200
E200
2600
2400
3400
1400
1C00
1800
0800
ENDCHAR
STARTCHAR 221E
ENCODING 8734
SWIDTH 562 0
DWIDTH 9 0
BBX 8 5 1 2
BITMAP
E6
B9
91
99
E7
ENDCHAR
STARTCHAR 222B
ENCODING 8747
SWIDTH 562 0
DWIDTH 9 0
BBX 7 15 1 -3
BITMAP
0E
0A
18
18
18
18
18
18
18
18
10
10
10
D0
60
ENDCHAR
STARTCHAR 2248
ENCODING 8776
SWIDTH 562 0
DWIDTH 9 0
BBX 8 6 1 1
BITMAP
F1
9F
04
F1
9F
06
ENDCHAR
STARTCHAR 2260
ENCODING 8800
SWIDTH 562 0
DWIDTH 9 0
BBX 8 7 1 1
BITMAP
02
04
FF
18
30
FF
40
ENDCHAR
STARTCHAR 2264
ENCODING 8804
SWIDTH 562 0
DWIDTH 9 0
BBX 8 11 1 0
BITMAP
01
07
1C
70
E0
38
0E
03
00
00
FF
ENDCHAR
STARTCHAR 2265
ENCODING 8805
SWIDTH 562 0
DWIDTH 9 0
BBX 8 10 1 1
BITMAP
C0
30
0C
07
1C
70
C0
00
00
FF
ENDCHAR
STARTCHAR 2334
ENCODING 9012
SWIDTH 562 0
DWIDTH 9 0
BBX 8 4 1 1
BITMAP
81
81
81
FF
ENDCHAR
STARTCHAR 2335
ENCODING 9013
SWIDTH 562 0
DWIDTH 9 0
BBX 8 5 1 0
BITMAP
01
83
46
2C
18
ENDCHAR
STARTCHAR 2502
ENCODING 9474
SWIDTH 562 0
DWIDTH 9 0
BBX 1 21 4 -5
BITMAP
80
80
80
80
80
80
80
80
80
80
80
80
80
80
80
80
80
80
80
80
80
ENDCHAR
STARTCHAR 25B8
ENCODING 9656
SWIDTH 562 0
DWIDTH 9 0
BBX 5 6 2 1
BITMAP
80
E0
F8
F8
E0
80
ENDCHAR
STARTCHAR 25CA
ENCODING 9674
SWIDTH 562 0
DWIDTH 9 0
BBX 8 12 1 0
BITMAP
10
18
2C
64
42
83
83
42
64
2C
18
10
ENDCHAR
STARTCHAR 276E
ENCODING 10094
SWIDTH 562 0
DWIDTH 9 0
BBX 5 11 2 -1
BITMAP
18
38
30
60
E0
C0
E0
60
30
38
18
ENDCHAR
STARTCHAR 276F
ENCODING 10095
SWIDTH 562 0
DWIDTH 9 0
BBX 6 11 2 -1
BITMAP
E0
60
30
38
18
1C
18
38
70
60
E0
ENDCHAR
STARTCHAR F000
ENCODING 61440
SWIDTH 562 0
DWIDTH 9 0
BBX 8 10 1 0
BITMAP
04
0C
08
FF
FE
FE
FE
FF
7E
7E
ENDCHAR
STARTCHAR F001
ENCODING 61441
SWIDTH 562 0
DWIDTH 9 0
BBX 9 13 0 0
BITMAP
0F00
1900
3000
3000
3000
FF80
3180
3180
3180
3180
3180
3180
3180
ENDCHAR
STARTCHAR F002
ENCODING 61442
SWIDTH 562 0
DWIDTH 9 0
BBX 9 13 0 0
BITMAP
0F80
3980
2080
2080
2080
FC80
2080
2080
2080
2080
2080
2080
2080
ENDCHAR
STARTCHAR F7FF
ENCODING 63487
SWIDTH 562 0
DWIDTH 9 0
BBX 8 10 1 0
BITMAP
04
0C
08
FF
FE
FE
FE
FF
7E
7E
ENDCHAR
STARTCHAR FB01
ENCODING 64257
SWIDTH 562 0
DWIDTH 9 0
BBX 9 13 0 0
BITMAP
0F00
1900
3000
3000
3000
FF80
3180
3180
3180
3180
3180
3180
3180
ENDCHAR
STARTCHAR FB02
ENCODING 64258
SWIDTH 562 0
DWIDTH 9 0
BBX 9 13 0 0
BITMAP
0F80
3980
2080
2080
2080
FC80
2080
2080
2080
2080
2080
2080
2080
ENDCHAR
ENDFONT
